<svg xmlns="http://www.w3.org/2000/svg" viewBox="0 0 16 16">
  <rect x="0" y="0.5" width="16" height="11.5" rx="1.5" fill="#637189"/>
  <path d="M2 2.5h12V9H2z" fill="#e4e9f1"/>
  <path d="M3 4h4v1H3zm0 2h6v1H3z" fill="#637189" opacity=".55"/>
  <g stroke="#e4e9f1" stroke-width="2.5" stroke-linejoin="round">
    <circle cx="8" cy="8.1" r="1.5" fill="#2465da"/>
    <path d="M8 10v2.4m-3-1.8 3 .6 3-.6m-5.2 2h4.4m-4.4 0-.5 2.9m4.9-2.9.5 2.9" fill="none" stroke-width="2.7" stroke-linecap="round"/>
  </g>
  <circle cx="8" cy="8.1" r="1.5" fill="#2465da"/>
  <path d="M8 10v2.4m-3-1.8 3 .6 3-.6m-5.2 2h4.4m-4.4 0-.5 2.9m4.9-2.9.5 2.9" fill="none" stroke="#2465da" stroke-width="1.3" stroke-linecap="round" stroke-linejoin="round"/>
</svg>
